<?xml version="1.0" encoding="UTF-8"?>
<svg id="Capa_1" xmlns="http://www.w3.org/2000/svg" version="1.1" viewBox="0 0 533.32 533.34">
  <!-- Generator: Adobe Illustrator 29.5.1, SVG Export Plug-In . SVG Version: 2.1.0 Build 141)  -->
  <defs>
    <style>
      .st0 {
        fill: #fff;
        fill-rule: evenodd;
      }
    </style>
  </defs>
  <path class="st0" d="M266.66,0C119.62,0,0,119.63,0,266.67s119.62,266.67,266.66,266.67,266.66-119.62,266.66-266.67S413.7,0,266.66,0h0ZM266.66,498.8c-127.99,0-232.12-104.13-232.12-232.13S138.67,34.54,266.66,34.54s232.13,104.13,232.13,232.13-104.13,232.13-232.13,232.13h0ZM357.26,188.89h2.1v-10.19h3.79v-1.8h-9.68v1.8h3.78v10.19h.01ZM366.51,179.62h.04l3.33,9.27h1.71l3.33-9.27h.05v9.27h1.98v-11.99h-2.9l-3.21,9.38h-.06l-3.29-9.38h-2.95v11.99h1.99v-9.27h-.02ZM305.95,176.89h-131.18l-19.9,31.99h131.03l20.06-31.99h-.01ZM332.76,177.19l-80.2,127.7h-88.96l20.52-32.01h53.32l20.37-32h-123.26l-20.36,32h29.2l-40.51,63.92h169.07l62.45-98.49,22.77,34.57h-20.53l-19.44,32.01h60.8l21.11,31.9h38.78l-105.13-159.6h0Z"/>
</svg>