<?xml version="1.0" encoding="UTF-8"?>
<svg id="Nintendo" xmlns="http://www.w3.org/2000/svg" version="1.1" viewBox="0 0 7530.2 1855.1">
  <!-- Generator: Adobe Illustrator 29.5.1, SVG Export Plug-In . SVG Version: 2.1.0 Build 141)  -->
  <defs>
    <style>
      .st0 {
        fill: #fff;
      }
    </style>
  </defs>
  <polygon class="st0" points="747 489.4 1019.1 489.4 1395.5 1098.4 1395.3 489.4 1665.3 489.4 1665.3 1362.7 1395.7 1362.7 1017.3 753.7 1017.3 1362.7 746.9 1362.7 747 489.4"/>
  <polygon class="st0" points="3133.1 579.2 3395.9 579.2 3395.9 696.7 3538.1 696.7 3538.1 783.1 3395.9 783.1 3396.1 1362.7 3133.1 1362.7 3133.2 783.1 2990.4 783.1 2990.4 696.9 3133.3 696.8 3133.1 579.2"/>
  <polygon class="st0" points="1815.6 781.9 2078.2 782 2078.2 1362.7 1815.6 1362.7 1815.6 781.9"/>
  <polygon class="st0" points="1815 489.2 2078.2 489.2 2078.2 667.7 1815 667.7 1815 489.2"/>
  <path class="st0" d="M6523.2,1067.7s-.1,87.8-.1,123c0,92.6-54.7,130.8-107.3,130.8s-107.6-38.2-107.6-130.8c0-35.2.1-125.2.1-125.2,0,0,.2-85.9.2-121.1,0-92.2,55-130.1,107.3-130.1s107.3,37.9,107.3,130.1c0,35.2-.1,100.3.2,123.6l-.1-.3h0ZM6417.7,742.3c-212,0-383.8,146-383.8,326.1s171.9,326.1,383.8,326.1,383.8-146,383.8-326.1-171.8-326.1-383.8-326.1h0Z"/>
  <path class="st0" d="M5689.2,489.4h259.2v873.3h-259.6s-.1-28.2-.1-33.6c-100.5,63.1-213.9,63-302.2,21.8-23.7-11-179.6-85.8-179.6-287.9,0-153.3,144.6-320.7,333.9-304.1,62.3,5.5,106.6,28.2,148.6,51.8-.2-134.4-.2-321.3-.2-321.3h0ZM5691.1,1069.4v-103.8c0-89.8-62-112.7-102.8-112.7s-103,22.9-103,112.7c0,29.8.1,103.5.1,103.5,0,0-.1,72.4-.1,103.3,0,89.7,61.2,113.2,102.9,113.2s103-23.5,103-113.2c0-37.3-.1-103-.1-103h0Z"/>
  <path class="st0" d="M2693,755.1c98.2-2.8,297.4,61.5,296,291.4-.2,40.8-.1,316-.1,316h-260.9v-381.4c0-50.6-48.4-106.9-120-106.9s-124.7,56.3-124.7,106.9c0,24.8.3,381.4.3,381.4h-260.7l-.1-580.7,260.9-.2s-.3,46.7,0,61.1c50.2-47.9,122.5-85.1,209.3-87.6h0Z"/>
  <path class="st0" d="M4827.2,755.1c98.2-2.8,297.4,61.5,296,291.4-.2,40.8-.1,316-.1,316h-260.9v-381.4c0-50.6-48.4-106.9-120-106.9s-124.7,56.3-124.7,106.9c0,24.8.3,381.4.3,381.4h-260.7l.2-580.7,260.6-.2s-.3,46.7,0,61.1c50.2-47.9,122.6-85.1,209.3-87.6h0Z"/>
  <path class="st0" d="M3782.7,984.4c-.4-50.9.7-84.9,17.4-113.9,20.5-35.8,58.2-52.8,92.4-53h-.1c34.2.2,71.9,17.2,92.4,53,16.7,29.1,17.4,63.1,17,114l-219.1-.1h0ZM4000.9,1159.5s.2,2.6.2,35.2c0,106.2-69.9,129.8-108.7,129.8s-109.9-23.6-109.9-129.8c0-31.8.2-119.9.2-119.9,0,0,494.7.2,494.7-.1,0-180.1-173.9-329.3-387.5-329.3s-386.7,146-386.7,326.1,173.1,326,386.7,326c177.2,0,326.9-101.1,372.6-238.2l-261.6.2h0Z"/>
  <path class="st0" d="M6842.4,554.4c42.5,0,63.6,14.4,63.6,42.9,0,19.6-12.2,34.4-32.5,39.5l33.3,66.5h-40.3l-28.5-61h-17.7v61h-36.3v-148.9h58.4ZM6839.1,496.2c-74.2,0-134.4,60.2-134.4,134.4s60.2,134.4,134.4,134.4,134.4-60.2,134.4-134.4-60.2-134.4-134.4-134.4h0ZM6947.8,630.7c0,60-48.7,108.7-108.7,108.7s-108.7-48.7-108.7-108.7,48.7-108.7,108.7-108.7,108.7,48.6,108.7,108.7h0ZM6820.3,620.5h17.7c20.7,0,30.7-6.3,30.7-21.1s-10.7-22.2-32.5-22.2h-15.9v43.3h0Z"/>
  <path class="st0" d="M984.9,1855.1C394.5,1854.9,0,1436.5,0,929.2h0C0,421.9,395.4-1.3,984,0h5562.2c588.6-1.3,984,421.9,984,929.2h0c0,507.3-394.5,925.7-984.9,925.9H984.9ZM986.7,228.2c-467.4.9-754.3,313.3-754.3,699.8h0c0,386.4,285.1,701.4,754.3,699.7h5556.8c469.2,1.6,754.4-313.3,754.4-699.7h0c0-386.4-286.9-698.8-754.3-699.7l-5556.9-.1h0Z"/>
</svg>