<?xml version="1.0" encoding="UTF-8"?>
<svg id="Capa_1" xmlns="http://www.w3.org/2000/svg" version="1.1" viewBox="0 0 1000 914.75">
  <!-- Generator: Adobe Illustrator 29.5.1, SVG Export Plug-In . SVG Version: 2.1.0 Build 141)  -->
  <defs>
    <style>
      .st0 {
        fill: #fff;
      }
    </style>
  </defs>
  <path class="st0" d="M60.16,695.1v98.19c0,39.87,27.18,65.28,66.76,65.28,41.64,0,67.12-26.8,67.12-67.97v-95.5h-35.24v93.7c0,22.45-11.3,36.37-31.5,36.37-22.13,0-31.9-16.01-31.9-34.58v-95.5h-35.24ZM211.17,696.45v160.52h56.13c31.09,0,57.5-15.85,57.5-47.3s-28.72-40.1-28.72-40.1c0,0,21.27-5.91,21.27-33.99s-26.88-39.12-50.05-39.12h-56.14ZM246.68,726.94h17.04c11.82,0,19.39,6.23,19.39,17.07,0,9.69-6.42,17.01-18.49,17.01h-17.94v-34.08h0ZM246.68,786.12h18.83c17.71,0,23.85,9.1,23.85,19.95,0,12.63-7.94,20.04-22.05,20.04h-20.62v-39.99h0ZM338.14,696.44h35.42v160.52h-35.42v-160.52h0ZM724.63,856.96h-35.42v-160.52h111.19v33.18h-75.78v36.76h69.05v26.9h-69.05v63.67h0ZM813.41,696.44v33.18h45.73v127.33h35.87v-127.33h44.84v-33.18h-126.45ZM414,803.58l-28.14,20.58s9.72,35.56,58.46,35.56c32.46,0,56.34-18.94,56.34-52.24,0-53.67-75.05-42.29-75.05-69.88,0-7.27,6.46-13.68,18.38-13.68,19.12,0,26.4,18.76,26.4,18.76l28.15-19.76s-11-29.3-53.13-29.3c-34.62,0-53.03,22.22-53.03,45.15,0,54.69,72.86,42.82,72.86,71.53,0,9.69-7.64,16.8-19.52,16.72-23.55,0-31.74-23.42-31.74-23.42h0ZM592.14,693.54c-41.71,0-60.3,22.64-60.3,22.64l5.38,5.38s-26.99,19.17-26.99,60.33c0,47.36,36.53,77.79,82.11,77.79,52.96,0,83-39.08,83-83,0-46.84-34.31-83.14-83.2-83.14h0ZM592.9,726.85c28.28,0,46.63,21.61,46.63,49.68s-18.13,49.99-46.63,49.99-46.66-19.66-46.66-45.76c0-23.75,16.08-34.11,16.08-34.11l-5.83-5.83s12.4-13.99,36.4-13.99h0ZM483.74,55.03c-181.92,0-260.44,161.92-260.44,161.92l23.11,16.55s-29.09,55.31-28.28,126.26c0,144.83,115.29,281.26,285.01,281.26,154.18,0,281.54-125.5,281.54-280.91,0-202.7-157.18-305.09-300.94-305.09h0ZM485.32,104.44c142.13,0,252.43,114.53,252.43,247.68,0,141.15-106.16,239.31-229.87,239.31-91.05,0-173.17-69.34-173.17-164.4,0-54.9,29.18-93.18,61.89-113.58l4.79,5.19c-8.95,7-34.47,48-34.47,88.29,0,74.79,58.65,126.6,132.55,126.6,94.13,0,156.91-80.29,156.91-173.51,0-108.46-95.74-200.54-210.96-200.54-63.72,0-117.82,27.4-148.9,51.6l-4.84-4.38c40.66-62.7,111.07-102.25,193.64-102.25h0ZM442.91,208.2c73.52,0,145.31,48.64,163.23,117.68l-6.52,2.47c-32.17-42.48-84.89-77.69-147.14-77.69-114.54,0-174.71,104.08-165.87,191.02l-6.75,2.47s-12.65-27.91-12.65-61.01c0-95.86,78.72-174.93,175.7-174.93h0ZM491.5,328.5c34.81,0,62.65,28.21,62.65,61.71,0,27.72-17.8,44.14-17.8,44.14l21.08,14.73s-20.9,32.81-63.57,32.81-76.9-32.94-76.9-77.24,39.26-76.16,74.54-76.16h0Z"/>
</svg>