<svg xmlns="http://www.w3.org/2000/svg" id="Capa_1" version="1.1" viewBox="0 0 2500 644"><defs><style>.st0{fill:#fff}</style></defs><path d="M860.79 176.76h99.7v380.26h-99.7zm1458.6 218.14v160.67l-100.3-.36V165.02l180.64 155.47V176.76h99.45v394.29L2319.4 394.89ZM359.43 365.86c0-107.92 87.59-195.51 195.51-195.51 48.64 0 93.16 17.9 127.4 47.3l-64.61 73.32c-16.94-14.28-38.84-22.87-62.79-22.87-53.96 0-97.76 43.8-97.76 97.76s43.8 97.76 97.76 97.76c24.32 0 46.58-8.95 63.76-23.71l64.49 73.44c-34.24 29.88-79.12 47.91-128.25 47.91-107.92 0-195.51-87.47-195.51-195.38" class="st0"/><path d="M1150.31 644 961.69 142.88H804.04v415.59h-103.2V142.88H472.42l52.99-99.81h509.96l114.94 300.28 115.06-300.28h493.74l54.44 99.81h-474.5l-188.73 501.13Z" class="st0"/><path d="M1468.99 555.57V471.6h68.48c11.13 0 32.3-.84 37.63-18.51 11.01-36.78-101.75-96.43-101.75-187.89 0-69.2 50.09-89.89 84.09-89.89h103.8v82.51h-64.12s-18.39 0-23.47 7.38c-27.83 39.81 103.08 98 103.08 204.95 0 55.9-47.91 85.42-95.7 85.42H1469ZM1340.5 175.31h99.82v380.26h-99.82zm352.43 0h99.82v380.26h-99.82zM283.69 557.02l-26.5-70.77H133.42l-26.49 70.77H.83L195.38 0l194.55 557.02H283.7ZM163.67 384.61h58.92l-29.52-97.27zm1647.22-18.87c0-108.04 87.72-195.75 195.87-195.75s195.75 87.71 195.75 195.75-87.72 195.87-195.75 195.87-195.87-87.72-195.87-195.87m98.6 0c0 53.71 43.56 97.27 97.27 97.27s97.15-43.56 97.15-97.27-43.56-97.15-97.15-97.15-97.27 43.55-97.27 97.15" class="st0"/></svg>