<svg xmlns="http://www.w3.org/2000/svg" viewBox="0 0 533.32 533.34"><path d="M266.66 0C119.62 0 0 119.63 0 266.67s119.62 266.67 266.66 266.67 266.66-119.62 266.66-266.67S413.7 0 266.66 0m0 498.8c-127.99 0-232.12-104.13-232.12-232.13S138.67 34.54 266.66 34.54s232.13 104.13 232.13 232.13S394.66 498.8 266.66 498.8m90.6-309.91h2.1V178.7h3.79v-1.8h-9.68v1.8h3.78v10.19zm9.25-9.27h.04l3.33 9.27h1.71l3.33-9.27h.05v9.27h1.98V176.9h-2.9l-3.21 9.38h-.06l-3.29-9.38h-2.95v11.99h1.99v-9.27zm-60.56-2.73H174.77l-19.9 31.99H285.9l20.06-31.99zm26.81.3-80.2 127.7H163.6l20.52-32.01h53.32l20.37-32H134.55l-20.36 32h29.2l-40.51 63.92h169.07l62.45-98.49 22.77 34.57h-20.53l-19.44 32.01H378l21.11 31.9h38.78z" style="fill:#fff;fill-rule:evenodd"/></svg>