<svg xmlns="http://www.w3.org/2000/svg" id="Nintendo" version="1.1" viewBox="0 0 7530.2 1855.1"><defs><style>.st0{fill:#fff}</style></defs><path d="M747 489.4h272.1l376.4 609-.2-609h270v873.3h-269.6l-378.4-609v609H746.9zm2386.1 89.8h262.8v117.5h142.2v86.4h-142.2l.2 579.6h-263l.1-579.6h-142.8v-86.2l142.9-.1zM1815.6 781.9l262.6.1v580.7h-262.6zm-.6-292.7h263.2v178.5H1815zm4708.2 578.5s-.1 87.8-.1 123c0 92.6-54.7 130.8-107.3 130.8s-107.6-38.2-107.6-130.8c0-35.2.1-125.2.1-125.2s.2-85.9.2-121.1c0-92.2 55-130.1 107.3-130.1s107.3 37.9 107.3 130.1c0 35.2-.1 100.3.2 123.6zm-105.5-325.4c-212 0-383.8 146-383.8 326.1s171.9 326.1 383.8 326.1 383.8-146 383.8-326.1-171.8-326.1-383.8-326.1m-728.5-252.9h259.2v873.3h-259.6s-.1-28.2-.1-33.6c-100.5 63.1-213.9 63-302.2 21.8-23.7-11-179.6-85.8-179.6-287.9 0-153.3 144.6-320.7 333.9-304.1 62.3 5.5 106.6 28.2 148.6 51.8-.2-134.4-.2-321.3-.2-321.3m1.9 580V965.6c0-89.8-62-112.7-102.8-112.7s-103 22.9-103 112.7c0 29.8.1 103.5.1 103.5s-.1 72.4-.1 103.3c0 89.7 61.2 113.2 102.9 113.2s103-23.5 103-113.2c0-37.3-.1-103-.1-103M2693 755.1c98.2-2.8 297.4 61.5 296 291.4-.2 40.8-.1 316-.1 316H2728V981.1c0-50.6-48.4-106.9-120-106.9s-124.7 56.3-124.7 106.9c0 24.8.3 381.4.3 381.4h-260.7l-.1-580.7 260.9-.2s-.3 46.7 0 61.1c50.2-47.9 122.5-85.1 209.3-87.6m2134.2 0c98.2-2.8 297.4 61.5 296 291.4-.2 40.8-.1 316-.1 316h-260.9V981.1c0-50.6-48.4-106.9-120-106.9s-124.7 56.3-124.7 106.9c0 24.8.3 381.4.3 381.4h-260.7l.2-580.7 260.6-.2s-.3 46.7 0 61.1c50.2-47.9 122.6-85.1 209.3-87.6M3782.7 984.4c-.4-50.9.7-84.9 17.4-113.9 20.5-35.8 58.2-52.8 92.4-53h-.1c34.2.2 71.9 17.2 92.4 53 16.7 29.1 17.4 63.1 17 114zm218.2 175.1s.2 2.6.2 35.2c0 106.2-69.9 129.8-108.7 129.8s-109.9-23.6-109.9-129.8c0-31.8.2-119.9.2-119.9s494.7.2 494.7-.1c0-180.1-173.9-329.3-387.5-329.3s-386.7 146-386.7 326.1 173.1 326 386.7 326c177.2 0 326.9-101.1 372.6-238.2zm2841.5-605.1c42.5 0 63.6 14.4 63.6 42.9 0 19.6-12.2 34.4-32.5 39.5l33.3 66.5h-40.3l-28.5-61h-17.7v61H6784V554.4zm-3.3-58.2c-74.2 0-134.4 60.2-134.4 134.4S6764.9 765 6839.1 765s134.4-60.2 134.4-134.4-60.2-134.4-134.4-134.4m108.7 134.5c0 60-48.7 108.7-108.7 108.7s-108.7-48.7-108.7-108.7S6779.1 522 6839.1 522s108.7 48.6 108.7 108.7m-127.5-10.2h17.7c20.7 0 30.7-6.3 30.7-21.1s-10.7-22.2-32.5-22.2h-15.9z" class="st0"/><path d="M984.9 1855.1C394.5 1854.9 0 1436.5 0 929.2S395.4-1.3 984 0h5562.2c588.6-1.3 984 421.9 984 929.2s-394.5 925.7-984.9 925.9zm1.8-1626.9c-467.4.9-754.3 313.3-754.3 699.8 0 386.4 285.1 701.4 754.3 699.7h5556.8c469.2 1.6 754.4-313.3 754.4-699.7S7011 229.2 6543.6 228.3z" class="st0"/></svg>