<svg xmlns="http://www.w3.org/2000/svg" id="Layer_1" version="1.1" viewBox="0 0 841.89 595.28"><defs><style>.st0{fill:#fff}</style></defs><path d="M311.31 413.91h67.56v-29.88h-97.44v43.24c0 13.43 10.89 24.32 24.32 24.32h91.31v-29.88h-85.75z" class="st0"/><path d="M246.27 332.14v98.22c0 31 25.13 56.12 56.12 56.12h94.58V456.6h-91.36c-16.27 0-29.46-13.19-29.46-29.46v-91.78c0-16.27 13.19-29.46 29.46-29.46h91.36v-29.88h-94.58c-31 0-56.12 25.13-56.12 56.12" class="st0"/><path d="M281.43 335.23v43.24h97.44v-29.88h-67.56v-7.8h85.75v-29.88h-91.31c-13.43 0-24.32 10.89-24.32 24.32m283.41 5.75V311.1h-95.21c-13.43 0-24.32 10.89-24.32 24.32v91.67c0 13.43 10.89 24.32 24.32 24.32h60.13v-67.56h-46.77v29.88h16.89v7.8H475.2v-80.55z" class="st0"/><path d="M709.26 302.38c-5.87-18.32-23.04-31.58-43.31-31.58s-36.7 12.7-42.92 30.4l-57.77 178.77V348.75h-81.85v29.88h51.97v77.95H470c-16.27 0-29.46-13.19-29.46-29.46v-91.78c0-16.27 13.19-29.46 29.46-29.46h95.26V276h-98.48c-31 0-56.12 25.13-56.12 56.12v98.22c0 31 25.13 56.12 56.12 56.12h129.01l58.31-180.44c1.79-4.81 6.42-8.23 11.84-8.23s9.72 3.18 11.64 7.72l49.1 151.08h-71.13v29.88h113.68l-59.98-184.09z" class="st0"/><path d="M677.35 421.6h-21.44v29.88h63.99l-46.82-143.82c-1.12-2.64-3.73-4.49-6.77-4.49s-5.66 1.85-6.77 4.49l-58.19 178.9h32.8l32.48-98.09zm53.42-124.57h2.05v-13.34h5.12v-1.81h-12.3v1.81h5.13zm11.07-8.95c0-.44-.04-2.36-.04-3.76h.04l4.26 12.7h2.03l4.26-12.72h.04c0 1.41-.04 3.33-.04 3.78v8.95h1.98v-15.15h-2.91l-4.3 12.81h-.04l-4.33-12.81h-2.93v15.15h1.98zm-579.25 60.83-28.26-.05v-7.8h94.19V311.2h-90.29c-18.65 0-33.76 15.12-33.76 33.76s15.12 33.76 33.76 33.76l24.36.18c21.44 0 38.81 17.7 38.81 39.14s-17.38 38.81-38.81 38.49H69.37v30.04l93.22-.05c38.18 0 69.13-30.3 69.13-68.48s-30.95-69.13-69.13-69.13" class="st0"/><path d="M137.89 413.59h27.61v7.85H69.36v29.88l92.57-.02c18.65 0 33.76-14.79 33.76-33.44s-15.12-34.09-33.76-34.09l-24.04-.18c-21.44 0-38.81-17.38-38.81-38.81s17.38-38.81 38.81-38.81l90.62-.16v-30.15h-90.62c-38.18 0-69.13 30.95-69.13 69.13s30.95 69.13 69.13 68.81Z" class="st0"/></svg>